<svg t="1773052738713" class="icon" viewBox="0 0 1024 1024" version="1.1" xmlns="http://www.w3.org/2000/svg" p-id="1941" width="256" height="256"><path d="M496.341333 128.170667c164.992 9.621333 169.706667 178.410667 149.738667 247.786666 199.637333-63.445333 276.16 26.453333 289.493333 79.296 23.936 126.869333-96.512 165.205333-159.722666 168.512 127.765333 158.570667 66.56 237.866667 19.968 257.706667-143.744 39.637333-226.261333-62.784-249.557334-118.954667-63.893333 134.805333-173.013333 142.08-219.605333 128.853334-135.765333-39.637333-76.522667-181.717333-29.952-247.786667-191.658667-31.722667-219.605333-125.546667-209.621333-168.490667 31.936-158.592 199.637333-132.16 279.488-99.136-31.936-206.165333 73.216-251.093333 129.770666-247.786666z" fill="#333333" p-id="1942"></path></svg>
